# xmcd CD Database Entry
#
# Track frame offsets:
# 150
# 2077
# 15658
# 35480
# 62109
# 76641
# 97957
# 113930
# 132734
# 149092
# 167318
#
# Disc length: 2347 seconds
#
# Revision: 2
# Processed by: cddbd v1.4PL0 Copyright (c) Steve Scherf et al.
# Submitted via: tcd 2.0b
#
DISCID=8a09290b
DTITLE=Kook Show - Let The Show Begin
DYEAR=1900
DGENRE=
TTITLE0=Intro
TTITLE1=Told You So
TTITLE2=One Night Stand
TTITLE3=Time To Shine
TTITLE4=My Own Self
TTITLE5=The Best is Yet To Come
TTITLE6=Sexy
TTITLE7=Satisfied
TTITLE8=Look Around
TTITLE9=Loud and Proud
TTITLE10=Wanna Be
EXTD=
EXTT0=
EXTT1=
EXTT2=
EXTT3=
EXTT4=
EXTT5=
EXTT6=
EXTT7=
EXTT8=
EXTT9=
EXTT10=
PLAYORDER=
